<svg width="219" height="137" viewBox="0 0 219 137" fill="none" xmlns="http://www.w3.org/2000/svg">
<path d="M175.611 1.90735e-06C168.63 1.90735e-06 162.197 3.973 159.186 10.138L139.749 49.046C137.833 52.882 136.875 56.992 136.875 61.239V123.3C136.875 130.835 143.034 137 150.562 137H205.312C212.841 137 219 130.835 219 123.3V68.5C219 60.965 212.841 54.8 205.312 54.8H177.938L192.036 26.578C198.195 14.385 189.298 1.90735e-06 175.611 1.90735e-06ZM38.7356 1.90735e-06C31.755 1.90735e-06 25.3219 3.973 22.3106 10.138L2.87436 49.046C0.958112 52.882 0 56.992 0 61.239V123.3C0 130.835 6.15937 137 13.6875 137H68.4375C75.9656 137 82.125 130.835 82.125 123.3V68.5C82.125 60.965 75.9656 54.8 68.4375 54.8L41.0625 54.8L55.1606 26.578C61.32 14.385 52.4231 1.90735e-06 38.7356 1.90735e-06Z" fill="white" fill-opacity="0.7"/>
</svg>
